<svg width="391" height="185" viewBox="0 0 391 185" fill="none" xmlns="http://www.w3.org/2000/svg">
<rect x="280" y="106" width="26" height="28" rx="10" fill="#6DDEFF"/>
<rect x="280" y="50" width="26" height="28" rx="10" fill="#6DDEFF"/>
<path d="M71.6286 102.534C68.8614 108.469 70.1432 113.807 71.6396 116.706C72.078 117.555 72.9941 118 73.9497 118H142.187C142.982 118 143.771 117.698 144.178 117.015C145.917 114.095 146.457 108.052 144.198 102.618C143.775 101.599 142.741 101 141.638 101H74.1591C73.0886 101 72.0809 101.564 71.6286 102.534Z" fill="#54FE69"/>
<path d="M71.6286 66.5342C68.8614 72.4694 70.1432 77.8073 71.6396 80.7056C72.078 81.5547 72.9941 82 73.9497 82H142.187C142.982 82 143.771 81.6983 144.178 81.0147C145.917 78.0955 146.457 72.0515 144.198 66.6184C143.775 65.5993 142.741 65 141.638 65H74.1591C73.0886 65 72.0809 65.564 71.6286 66.5342Z" fill="#54FE69"/>
<path d="M221 171.299C217 171.299 217.333 166.966 218 164.799C251.5 84.799 219.5 25.299 218 22.799C216.5 20.299 216 15.799 219.5 14.299C223 12.799 235.5 11.299 238.5 17.799C277.5 101.299 240 162.799 238.5 167.799C237 172.799 226 171.299 221 171.299Z" fill="#6CDDFF"/>
<path d="M198.172 171.299C202.172 171.299 201.838 166.966 201.172 164.799C167.672 84.7991 199.672 25.2991 201.172 22.7991C202.672 20.2991 203.172 15.7991 199.672 14.2991C196.172 12.7991 183.672 11.2991 180.672 17.7991C141.672 101.299 179.172 162.799 180.672 167.799C182.172 172.799 193.172 171.299 198.172 171.299Z" fill="#6CDDFF"/>
<path d="M368.546 77.6466C372.007 81.1078 376.701 83.0523 381.596 83.0523C384.044 83.0523 386.391 84.0245 388.121 85.7551C389.852 87.4857 390.824 89.8329 390.824 92.2803C390.824 94.7277 389.852 97.0749 388.121 98.8055C386.391 100.536 384.044 101.508 381.596 101.508C376.701 101.508 372.007 103.453 368.546 106.914C365.085 110.375 363.14 115.07 363.14 119.964V147.648C363.14 157.438 359.251 166.827 352.329 173.749C345.406 180.672 336.018 184.561 326.228 184.561C323.781 184.561 321.433 183.588 319.703 181.858C317.972 180.127 317 177.78 317 175.333C317 172.885 317.972 170.538 319.703 168.807C321.433 167.077 323.781 166.105 326.228 166.105C331.123 166.105 335.817 164.16 339.278 160.699C342.74 157.238 344.684 152.543 344.684 147.648V119.964C344.714 114.709 345.865 109.521 348.061 104.747C350.257 99.9726 353.448 95.7224 357.419 92.2803C353.448 88.8383 350.257 84.588 348.061 79.8137C345.865 75.0395 344.714 69.8513 344.684 64.5962V36.9121C344.684 32.0173 342.74 27.3229 339.278 23.8617C335.817 20.4005 331.123 18.4561 326.228 18.4561C323.781 18.4561 321.433 17.4838 319.703 15.7532C317.972 14.0226 317 11.6755 317 9.22803C317 6.78061 317.972 4.43342 319.703 2.70283C321.433 0.972236 323.781 0 326.228 0C336.018 0 345.406 3.88895 352.329 10.8113C359.251 17.7337 363.14 27.1224 363.14 36.9121V64.5962C363.14 69.4911 365.085 74.1854 368.546 77.6466Z" fill="#FE3D3C"/>
<path d="M46.1401 36.9121C46.1401 32.0173 48.0846 27.3229 51.5458 23.8617C55.007 20.4005 59.7014 18.4561 64.5962 18.4561C67.0436 18.4561 69.3908 17.4838 71.1214 15.7532C72.852 14.0226 73.8242 11.6755 73.8242 9.22803C73.8242 6.78061 72.852 4.43342 71.1214 2.70283C69.3908 0.972236 67.0436 0 64.5962 0C54.8065 0 45.4178 3.88895 38.4954 10.8113C31.573 17.7337 27.6841 27.1224 27.6841 36.9121V64.5962C27.6841 69.4911 25.7396 74.1854 22.2784 77.6466C18.8173 81.1078 14.1229 83.0523 9.22803 83.0523C6.7806 83.0523 4.43342 84.0245 2.70283 85.7551C0.972236 87.4857 0 89.8329 0 92.2803C0 94.7277 0.972236 97.0749 2.70283 98.8055C4.43342 100.536 6.7806 101.508 9.22803 101.508C14.1229 101.508 18.8173 103.453 22.2784 106.914C25.7396 110.375 27.6841 115.07 27.6841 119.964V147.648C27.6841 157.438 31.573 166.827 38.4954 173.749C45.4178 180.672 54.8065 184.561 64.5962 184.561C67.0436 184.561 69.3908 183.588 71.1214 181.858C72.852 180.127 73.8242 177.78 73.8242 175.333C73.8242 172.885 72.852 170.538 71.1214 168.807C69.3908 167.077 67.0436 166.105 64.5962 166.105C59.7014 166.105 55.007 164.16 51.5458 160.699C48.0846 157.238 46.1401 152.543 46.1401 147.648V119.964C46.1105 114.709 44.9591 109.521 42.7629 104.747C40.5668 99.9726 37.3765 95.7224 33.4055 92.2803C37.3765 88.8383 40.5668 84.588 42.7629 79.8137C44.9591 75.0395 46.1105 69.8513 46.1401 64.5962V36.9121Z" fill="#FE3D3C"/>
</svg>
